<svg width="50" height="30" viewBox="0 0 50 30" fill="none" xmlns="http://www.w3.org/2000/svg">
<path opacity="0.5" fill-rule="evenodd" clip-rule="evenodd" d="M41 15C41 18.9 37.9 22 34 22H14C10.1 22 7 18.9 7 15C7 11.1 10.1 8 14 8H34C37.9 8 41 11.1 41 15Z" fill="#2261BC"/>
<g filter="url(#filter0_dd_2974_1042)">
<path fill-rule="evenodd" clip-rule="evenodd" d="M33 25C38.5228 25 43 20.5228 43 15C43 9.47715 38.5228 5 33 5C27.4772 5 23 9.47715 23 15C23 20.5228 27.4772 25 33 25Z" fill="#2261BC"/>
</g>
<defs>
<filter id="filter0_dd_2974_1042" x="21" y="4" width="24" height="24" filterUnits="userSpaceOnUse" color-interpolation-filters="sRGB">
<feFlood flood-opacity="0" result="BackgroundImageFix"/>
<feColorMatrix in="SourceAlpha" type="matrix" values="0 0 0 0 0 0 0 0 0 0 0 0 0 0 0 0 0 0 127 0" result="hardAlpha"/>
<feOffset dy="1"/>
<feGaussianBlur stdDeviation="1"/>
<feColorMatrix type="matrix" values="0 0 0 0 0 0 0 0 0 0 0 0 0 0 0 0 0 0 0.2 0"/>
<feBlend mode="normal" in2="BackgroundImageFix" result="effect1_dropShadow_2974_1042"/>
<feColorMatrix in="SourceAlpha" type="matrix" values="0 0 0 0 0 0 0 0 0 0 0 0 0 0 0 0 0 0 127 0" result="hardAlpha"/>
<feOffset dy="0.1"/>
<feGaussianBlur stdDeviation="0.15"/>
<feColorMatrix type="matrix" values="0 0 0 0 0 0 0 0 0 0 0 0 0 0 0 0 0 0 0.1 0"/>
<feBlend mode="normal" in2="effect1_dropShadow_2974_1042" result="effect2_dropShadow_2974_1042"/>
<feBlend mode="normal" in="SourceGraphic" in2="effect2_dropShadow_2974_1042" result="shape"/>
</filter>
</defs>
</svg>
