<svg width="16" height="17" viewBox="0 0 16 17" fill="none" xmlns="http://www.w3.org/2000/svg">
<path fill-rule="evenodd" clip-rule="evenodd" d="M2.48954 8.51762C2.29836 8.51762 2.14338 8.67259 2.14338 8.86377C2.14338 9.05495 2.29836 9.20992 2.48954 9.20992L8.01781 9.20992L8.01781 14.7382C8.01781 14.9294 8.17279 15.0843 8.36396 15.0843C8.55514 15.0843 8.71011 14.9294 8.71011 14.7382L8.71012 9.20992H14.2384C14.4296 9.20992 14.5845 9.05494 14.5845 8.86377C14.5845 8.67259 14.4296 8.51762 14.2384 8.51762H8.71012L8.71011 2.98934C8.71011 2.79817 8.55514 2.64319 8.36396 2.64319C8.17279 2.64319 8.01781 2.79817 8.01781 2.98934L8.01781 8.51762L2.48954 8.51762Z" fill="#DBDBDB" stroke="#DBDBDB" stroke-linecap="round"/>
</svg>
